<svg xmlns="http://www.w3.org/2000/svg" width="36.567" height="32" viewBox="0 0 36.567 32">
  <path id="leaf-solid" d="M36.568,41.479c0,9.135-5,16.805-12.52,19.29a12.513,12.513,0,0,1-15.74-5.857,17.346,17.346,0,0,0-4.925,7.72,1.715,1.715,0,0,1-1.666,1.315,1.763,1.763,0,0,1-.4-.047A1.717,1.717,0,0,1,.049,61.833C.735,59.012,6.511,45.663,24,45.663a1.142,1.142,0,1,0,0-2.284,27.775,27.775,0,0,0-17.12,5.4,12.879,12.879,0,0,1,.252-2.36A12.554,12.554,0,0,1,22.3,36.833a9.619,9.619,0,0,0,10.663-4.374.988.988,0,0,1,1.761.059A22.439,22.439,0,0,1,36.568,41.479Z" transform="translate(-0.002 -31.948)" fill="#1fcd5b"/>
</svg>
